<svg xmlns="http://www.w3.org/2000/svg" viewBox="0 0 500.73 500.73"><defs><style>.cls-1{fill:none;}.cls-2{fill:#e0edf5;}.cls-3{fill:#edf3f7;}.cls-4{opacity:0.5;}.cls-5{fill:#879fb3;}.cls-6{fill:#c1cfdb;}.cls-7{fill:#ffc007;}.cls-8{fill:#eecda2;}</style></defs><title>how-it-work-img4</title><g id="Layer_2" data-name="Layer 2"><g id="Icons"><rect class="cls-1" width="500.73" height="500.73"/><rect class="cls-2" x="179.32" y="193.64" width="52.14" height="35.42"/><path class="cls-3" d="M284.76,298.44A291.55,291.55,0,0,0,328,284.12v-27a41.51,41.51,0,0,0-41.55-41.54H124.34a41.51,41.51,0,0,0-41.55,41.54v27A291.55,291.55,0,0,0,126,298.44c3,.76,6.06,1.45,9.17,2.13l60.88,7.28h.23c3,.07,6.06.15,9.1.15a329.47,329.47,0,0,0,70.2-7.43Z"/><polygon class="cls-2" points="205.39 259.56 231.46 215.54 179.31 215.54 205.39 259.56"/><g class="cls-4"><path class="cls-5" d="M135.18,251.74v48.83c-3.11-.68-6.14-1.37-9.18-2.12V251.74Z"/><polygon class="cls-5" points="284.76 298.44 284.76 251.74 275.59 251.74 275.59 300.57 284.76 298.44"/></g><polygon class="cls-5" points="205.39 259.56 179.31 202.92 156.57 216.51 204.88 259.56 205.39 259.56"/><polygon class="cls-5" points="205.39 259.56 231.46 202.92 254.2 216.51 205.89 259.56 205.39 259.56"/><path class="cls-6" d="M157.6,113.4h0a127.38,127.38,0,0,1,93.87.62l1.62.65.22-17c.21-15.85-11.46-28.86-26.07-29l-42.58-.57c-14.61-.19-26.63,12.5-26.84,28.35Z"/><path class="cls-6" d="M190.92,211l26.43.35a34.63,34.63,0,0,0,35.09-34.16l.84-63.21-18.6-7.37a82,82,0,0,0-58.46-.74l-18.62,6.84-.84,63.21A34.62,34.62,0,0,0,190.92,211Z"/><path class="cls-2" d="M204.62,100.84h0l33.76,7.35a9.66,9.66,0,0,1,7.6,9.56l-.52,38.8a16.09,16.09,0,0,1-16.3,15.88h0a16.1,16.1,0,0,1-11.31-4.86l-.3-.3a16.07,16.07,0,0,0-11.31-4.87l-2.42,0h0l-2.42,0a16,16,0,0,0-11.44,4.56l-.31.29a16,16,0,0,1-11.44,4.56h0a16.08,16.08,0,0,1-15.87-16.3l.51-38.8a9.67,9.67,0,0,1,7.85-9.36Z"/><path class="cls-6" d="M148.45,132.38h0a8.74,8.74,0,0,1,8.74,8.74v5.08a8.74,8.74,0,0,1-8.74,8.74h0a0,0,0,0,1,0,0V132.38A0,0,0,0,1,148.45,132.38Z" transform="translate(303.72 289.35) rotate(-179.24)"/><path class="cls-6" d="M252.86,133.77h0a8.74,8.74,0,0,1,8.74,8.74v5.08a8.74,8.74,0,0,1-8.74,8.74h0a0,0,0,0,1,0,0V133.77A0,0,0,0,1,252.86,133.77Z" transform="translate(1.95 -3.41) rotate(0.76)"/><path class="cls-5" d="M157.56,115.17c37.59-13,61.15-12.71,98.43,1.31a4.67,4.67,0,0,0,6-2.6l0-.08a4.69,4.69,0,0,0-2.69-6.09c-39.69-14.95-64.82-15.3-104.9-1.4a4.7,4.7,0,0,0-2.86,6l0,.08A4.68,4.68,0,0,0,157.56,115.17Z"/><rect class="cls-5" x="198.05" y="65.37" width="14.08" height="7.15" rx="3.58" ry="3.58" transform="translate(409.24 140.62) rotate(-179.24)"/><path class="cls-7" d="M261.21,206.31a1.45,1.45,0,0,0-1.88,2.22l9.14,7.74a1.39,1.39,0,0,0,.94.35,1.43,1.43,0,0,0,1.11-.52,1.46,1.46,0,0,0-.17-2Z"/><path class="cls-7" d="M300.12,206.48a1.44,1.44,0,0,0-2-.17l-9.15,7.74a1.46,1.46,0,0,0,.94,2.57,1.39,1.39,0,0,0,.94-.35l9.14-7.74A1.44,1.44,0,0,0,300.12,206.48Z"/><path class="cls-7" d="M279.64,184.81a1.45,1.45,0,0,0-1.45,1.46V202a1.46,1.46,0,0,0,2.91,0V186.27A1.46,1.46,0,0,0,279.64,184.81Z"/><path class="cls-7" d="M281.72,216.13l10.66,28.8a2.85,2.85,0,0,0,2.54,1.85L325.61,248a2.83,2.83,0,0,1,1.64,5l-24.1,19a2.83,2.83,0,0,0-1,3l8.31,29.56a2.84,2.84,0,0,1-4.3,3.13l-25.55-17a2.86,2.86,0,0,0-3.15,0l-25.55,17a2.84,2.84,0,0,1-4.3-3.13L256,275.1a2.83,2.83,0,0,0-1-3l-24.09-19a2.83,2.83,0,0,1,1.64-5l30.68-1.24a2.85,2.85,0,0,0,2.55-1.85l10.66-28.8A2.83,2.83,0,0,1,281.72,216.13Z"/><path class="cls-8" d="M266.46,263.46l45.88,45.87a.27.27,0,0,0,.08.07l-1.34,1.33-25-25a7.8,7.8,0,0,0-11,0l-.44.44a7.82,7.82,0,0,0,0,11l25,25-1.43,1.43-19.72-19.72a7.09,7.09,0,0,0-10,0l-.42.41a7.1,7.1,0,0,0,0,10L287.78,334l-2.11,2.11-12.05-12a5.85,5.85,0,0,0-8.25,0l-1.3,1.3a5.85,5.85,0,0,0,0,8.25l40,40A54.77,54.77,0,0,0,318.41,384l25.43,12.62,35.39-35.39-1.1-2.76a58.42,58.42,0,0,0-13-19.79l-.62-.61c-.06-.06-.11-.15-.17-.21L310,283.49s0,.08.08.12L278.2,251.72a8.3,8.3,0,1,0-11.74,11.74Z"/><rect class="cls-6" x="330.65" y="369.22" width="65.14" height="22.92" transform="translate(-162.8 368.33) rotate(-45)"/><path class="cls-2" d="M381.57,371.44h26.51a0,0,0,0,1,0,0v65.14a0,0,0,0,1,0,0H381.57A16.56,16.56,0,0,1,365,420V388a16.56,16.56,0,0,1,16.56-16.56Z" transform="translate(374.19 963.02) rotate(-135)"/><path class="cls-8" d="M342.5,296.17l12.29,12.29a28.22,28.22,0,0,1,7.9,15.38l2.45,14.77-41.31-41.3,1.13-1.14A12.41,12.41,0,0,1,342.5,296.17Z"/></g></g></svg>