<?xml version="1.0" encoding="utf-8"?>
<!-- Generator: Adobe Illustrator 22.1.0, SVG Export Plug-In . SVG Version: 6.00 Build 0)  -->
<svg version="1.1" id="Layer_1" xmlns="http://www.w3.org/2000/svg" xmlns:xlink="http://www.w3.org/1999/xlink" x="0px" y="0px"
	 viewBox="0 0 500.7 500.7" style="enable-background:new 0 0 500.7 500.7;" xml:space="preserve">
<style type="text/css">
	.st0{fill:#444A4D;}
	.st1{fill:#484F52;}
	.st2{fill:#E0EDF5;}
	.st3{fill:#8FA1B3;}
	.st4{fill:#778899;}
	.st5{fill:#5B6366;}
	.st6{fill:#FFBB33;}
	.st7{fill:#FF4633;}
	.st8{fill:#9CA8B3;}
	.st9{fill:#879FB3;}
	.st10{fill:#0091F7;}
	.st11{fill:#35C86F;}
	.st12{fill:#C1CFDB;}
	.st13{fill:#FFFFFF;}
	.st14{fill:#CFDDEB;}
</style>
<path class="st0" d="M144.2,404c0,36.1-29.2,65.3-65.3,65.3c-22.1,0-41.7-11.1-53.6-27.9v-74.8c11.8-16.9,31.4-27.9,53.6-27.9
	C115,338.7,144.2,367.9,144.2,404z"/>
<ellipse transform="matrix(3.327794e-02 -0.9994 0.9994 3.327794e-02 -329.7884 468.418)" class="st1" cx="77.2" cy="404.7" rx="37.3" ry="37.3"/>
<path class="st0" d="M184.9,349.5c49.7,0,90,7.7,90,17.3s-40.3,17.3-90,17.3s-60.2-7.7-60.2-17.3S135.2,349.5,184.9,349.5z"/>
<title>how-it-work-img3</title>
<rect x="25.3" y="45.2" class="st2" width="99.3" height="282"/>
<path class="st3" d="M273.2,45.2H124.7v282h150.2V46.9C274.9,46,274.1,45.2,273.2,45.2z"/>
<path class="st4" d="M256.9,65.1H143.1c-0.7,0-1.2,0.6-1.2,1.2V302c0,0.7,0.6,1.2,1.2,1.2H257c0.7,0,1.2-0.6,1.2-1.2V66.3
	C258.1,65.7,257.6,65.1,256.9,65.1z"/>
<polygon class="st5" points="124.7,367.4 25.3,392.2 25.3,327.5 124.7,327.5 "/>
<path class="st0" d="M274,367.4H124.7v-39.8h150.2v39C274.9,366.9,274.5,367.4,274,367.4z"/>
<g>
	<path class="st6" d="M156.2,356.2h-16.7c-0.3,0-0.6-0.2-0.6-0.6v-16.4c0-0.3,0.2-0.6,0.6-0.6h16.7c0.3,0,0.6,0.2,0.6,0.6v16.4
		C156.7,356,156.5,356.2,156.2,356.2z"/>
	<path class="st7" d="M176.4,356.2h-16.7c-0.3,0-0.6-0.2-0.6-0.6v-16.4c0-0.3,0.2-0.6,0.6-0.6h16.7c0.3,0,0.6,0.2,0.6,0.6v16.4
		C177,356,176.7,356.2,176.4,356.2z"/>
</g>
<g>
	<path class="st6" d="M247.6,356.2h16.7c0.3,0,0.6-0.2,0.6-0.6v-16.4c0-0.3-0.2-0.6-0.6-0.6h-16.7c-0.3,0-0.6,0.2-0.6,0.6v16.4
		C247,356,247.3,356.2,247.6,356.2z"/>
	<path class="st7" d="M227.3,356.2h16.8c0.3,0,0.6-0.2,0.6-0.6v-16.4c0-0.3-0.2-0.6-0.6-0.6h-16.7c-0.3,0-0.6,0.2-0.6,0.6v16.4
		C226.8,356,227.1,356.2,227.3,356.2z"/>
</g>
<g>
	<polygon class="st2" points="350,461.9 258.8,461.9 152.1,303.3 243.1,303.3 	"/>
	<polygon class="st8" points="343.2,461.9 267.5,461.9 160.8,303.3 236.4,303.3 	"/>
</g>
<g>
	<path class="st9" d="M400.2,249l-16.7,2.2l-4.5-33.9c-0.3-2,1.1-3.9,3.2-4.2l4.8-0.6c4.5-0.6,8.7,2.6,9.2,7.1L400.2,249z"/>
	<path class="st10" d="M433.1,199.4h-21.5c-5.3,0-9.6,4.3-9.6,9.6v45.8h40.6V209C442.6,203.7,438.4,199.4,433.1,199.4z M414.4,226.5
		c0,1.3-1,2.3-2.3,2.3s-2.3-1-2.3-2.3v-11.7c0-1.3,1-2.3,2.3-2.3s2.3,1,2.3,2.3V226.5z M424.6,226.5c0,1.3-1,2.3-2.3,2.3
		s-2.3-1-2.3-2.3v-11.7c0-1.3,1-2.3,2.3-2.3s2.3,1,2.3,2.3V226.5z M434.9,226.5c0,1.3-1,2.3-2.3,2.3s-2.3-1-2.3-2.3v-11.7
		c0-1.3,1-2.3,2.3-2.3s2.3,1,2.3,2.3V226.5z"/>
	<rect x="460.4" y="215.5" class="st2" width="2" height="31.9"/>
	<polygon class="st11" points="473.1,197.6 449.7,197.6 446.6,216.9 476.2,216.9 	"/>
	<rect x="374.5" y="230.7" class="st12" width="18.8" height="83.4"/>
	<rect x="389.9" y="230.7" class="st2" width="83.4" height="83.4"/>
	<rect x="442.2" y="288.9" class="st13" width="21.8" height="15.1"/>
	<rect x="445.2" y="291.6" class="st12" width="15.8" height="9.8"/>
	<polygon class="st12" points="473.3,230.7 485,253.7 401.6,253.7 389.9,230.7 	"/>
	<polygon class="st14" points="374.6,230.7 357.8,253.2 373.3,253.2 390,230.7 	"/>
</g>
<rect x="326.1" y="314.9" class="st12" width="147" height="147"/>
<rect x="384" y="314.9" class="st4" width="31.3" height="31.3"/>
</svg>
