<?xml version="1.0" encoding="utf-8"?>
<!-- Generator: Adobe Illustrator 22.1.0, SVG Export Plug-In . SVG Version: 6.00 Build 0)  -->
<svg version="1.1" id="Layer_1" xmlns="http://www.w3.org/2000/svg" xmlns:xlink="http://www.w3.org/1999/xlink" x="0px" y="0px"
	 viewBox="0 0 500.7 500.7" style="enable-background:new 0 0 500.7 500.7;" xml:space="preserve">
<style type="text/css">
	.st0{fill:#5B6366;}
	.st1{fill:#E0EDF5;}
	.st2{fill:#C1CFDB;}
	.st3{opacity:0.5;fill:#C1CFDB;}
	.st4{fill:#FAFDFF;}
	.st5{fill:#FFBB33;}
	.st6{fill:#00AEEF;}
	.st7{fill:#FF4633;}
	.st8{opacity:0.5;fill:#FAFDFF;}
	.st9{fill:#0190F6;}
</style>
<path class="st0" d="M417,118.3H83.7c-8,0-14.4,6.5-14.4,14.4V356h362.1V132.8C431.4,124.8,425,118.3,417,118.3z"/>
<path class="st1" d="M472.8,356h-448c-2.6,0-4.7,2.1-4.7,4.7v6.6h457.4v-6.6C477.6,358.2,475.5,356,472.8,356z"/>
<path class="st2" d="M477.6,367H20.2l3.1,1.1c11.2,4.1,23,6.2,35,6.2h381.3c11.9,0,23.8-2.1,35-6.2L477.6,367z"/>
<path class="st3" d="M286.4,360.1h-72c-2.3,0-4.1-1.8-4.1-4.1l0,0h80.2l0,0C290.5,358.3,288.6,360.1,286.4,360.1z"/>
<circle class="st2" cx="249.7" cy="124.8" r="1.7"/>
<rect x="80.4" y="131.5" class="st1" width="338.5" height="215"/>
<path class="st4" d="M412.6,342.4H86.7c-0.2,0-0.3-0.1-0.3-0.3V174.5c0-0.2,0.1-0.3,0.3-0.3h325.9c0.2,0,0.3,0.1,0.3,0.3v167.6
	C412.9,342.3,412.8,342.4,412.6,342.4z"/>
<circle class="st5" cx="382.3" cy="141" r="3.8"/>
<circle class="st6" cx="395.7" cy="141" r="3.8"/>
<circle class="st7" cx="409.1" cy="141" r="3.8"/>
<rect x="98.9" y="188" class="st1" width="80.8" height="141.7"/>
<rect x="191.4" y="188" class="st1" width="208.1" height="64.4"/>
<rect x="191.4" y="188" class="st8" width="57" height="64.4"/>
<rect x="98.9" y="217.2" class="st8" width="80.8" height="29.3"/>
<g>
	<g>
		<path class="st9" d="M158,142.8v3.1h-7.2v4.5h6v3.2h-6v6.9h-4.1v-17.7H158z"/>
		<path class="st9" d="M164.3,160.5v-12.6h2.2c0.2,0,0.3,0,0.5,0c0.1,0,0.2,0.1,0.3,0.2c0.1,0.1,0.1,0.2,0.2,0.3
			c0,0.1,0.1,0.3,0.1,0.4l0.2,1.2c0.5-0.7,1-1.3,1.6-1.7c0.6-0.4,1.2-0.6,1.9-0.6c0.6,0,1,0.1,1.4,0.4l-0.5,2.8
			c0,0.2-0.1,0.3-0.2,0.4c-0.1,0.1-0.2,0.1-0.4,0.1c-0.1,0-0.3,0-0.5-0.1c-0.2,0-0.4-0.1-0.7-0.1c-1,0-1.8,0.5-2.3,1.6v7.7H164.3z"
			/>
		<path class="st9" d="M184.5,147.7c0.8,0,1.6,0.1,2.3,0.4c0.7,0.3,1.3,0.6,1.8,1.1c0.5,0.5,0.9,1.1,1.2,1.8
			c0.3,0.7,0.4,1.5,0.4,2.4c0,0.3,0,0.5,0,0.7c0,0.2-0.1,0.3-0.1,0.4c-0.1,0.1-0.2,0.2-0.3,0.2c-0.1,0-0.2,0.1-0.4,0.1H182
			c0.1,1,0.4,1.8,1,2.3c0.5,0.5,1.2,0.7,2,0.7c0.4,0,0.8-0.1,1.1-0.2c0.3-0.1,0.6-0.2,0.8-0.4c0.2-0.1,0.5-0.2,0.7-0.4
			c0.2-0.1,0.4-0.2,0.6-0.2c0.3,0,0.5,0.1,0.7,0.3l1.1,1.3c-0.4,0.4-0.8,0.8-1.3,1.1c-0.4,0.3-0.9,0.5-1.4,0.7
			c-0.5,0.2-0.9,0.3-1.4,0.3c-0.5,0.1-0.9,0.1-1.4,0.1c-0.9,0-1.7-0.1-2.5-0.4c-0.8-0.3-1.4-0.7-2-1.3c-0.6-0.6-1-1.3-1.4-2.1
			c-0.3-0.8-0.5-1.8-0.5-2.9c0-0.8,0.1-1.6,0.4-2.4c0.3-0.8,0.7-1.4,1.2-2c0.5-0.6,1.2-1,2-1.3C182.7,147.9,183.5,147.7,184.5,147.7
			z M184.6,150.3c-0.7,0-1.3,0.2-1.7,0.6c-0.4,0.4-0.7,1-0.8,1.8h4.7c0-0.3,0-0.6-0.1-0.9c-0.1-0.3-0.2-0.5-0.4-0.8
			c-0.2-0.2-0.4-0.4-0.7-0.5C185.3,150.4,185,150.3,184.6,150.3z"/>
		<path class="st9" d="M201.5,160.7c-0.6,0-1.1-0.1-1.6-0.3c-0.5-0.2-0.8-0.4-1.2-0.7c-0.3-0.3-0.5-0.7-0.7-1.2
			c-0.2-0.5-0.2-1-0.2-1.5v-6.5h-1.1c-0.2,0-0.4-0.1-0.5-0.2c-0.1-0.1-0.2-0.3-0.2-0.6v-1.5l2-0.4l0.7-3.1c0.1-0.4,0.4-0.6,0.8-0.6
			h2v3.7h3.1v2.6h-3.1v6.2c0,0.3,0.1,0.5,0.2,0.7c0.1,0.2,0.3,0.3,0.6,0.3c0.1,0,0.3,0,0.3,0c0.1,0,0.2-0.1,0.2-0.1
			c0.1,0,0.1-0.1,0.2-0.1c0.1,0,0.1,0,0.2,0c0.1,0,0.2,0,0.3,0.1c0.1,0.1,0.1,0.1,0.2,0.2l1.1,1.8c-0.5,0.4-1,0.6-1.6,0.8
			C202.8,160.6,202.2,160.7,201.5,160.7z"/>
		<path class="st9" d="M211.7,160.5v-17.7h6.5c1.2,0,2.3,0.1,3.1,0.3c0.9,0.2,1.6,0.5,2.1,1c0.5,0.4,0.9,0.9,1.2,1.5
			c0.2,0.6,0.4,1.2,0.4,2c0,0.4-0.1,0.8-0.2,1.1c-0.1,0.4-0.3,0.7-0.5,1c-0.2,0.3-0.6,0.6-0.9,0.9c-0.4,0.3-0.8,0.5-1.4,0.7
			c1.2,0.3,2,0.7,2.6,1.4c0.6,0.6,0.8,1.4,0.8,2.4c0,0.8-0.1,1.4-0.4,2.1c-0.3,0.6-0.7,1.2-1.3,1.7c-0.6,0.5-1.3,0.9-2.1,1.1
			c-0.8,0.3-1.8,0.4-2.8,0.4H211.7z M215.8,150.2h2.1c0.5,0,0.9,0,1.2-0.1c0.4-0.1,0.7-0.2,0.9-0.3c0.3-0.2,0.4-0.4,0.6-0.7
			c0.1-0.3,0.2-0.6,0.2-1.1c0-0.4-0.1-0.8-0.2-1c-0.1-0.3-0.3-0.5-0.5-0.7s-0.5-0.3-0.8-0.4c-0.3-0.1-0.7-0.1-1.2-0.1h-2.4V150.2z
			 M215.8,153v4.4h2.9c0.5,0,1-0.1,1.3-0.2c0.3-0.1,0.6-0.3,0.8-0.5c0.2-0.2,0.3-0.5,0.4-0.7c0.1-0.3,0.1-0.6,0.1-0.8
			c0-0.3,0-0.6-0.1-0.9c-0.1-0.3-0.2-0.5-0.4-0.7c-0.2-0.2-0.5-0.3-0.8-0.4c-0.3-0.1-0.8-0.1-1.3-0.1H215.8z"/>
		<path class="st9" d="M241.1,160.5c-0.4,0-0.6,0-0.8-0.1c-0.2-0.1-0.3-0.3-0.5-0.6l-0.3-0.7c-0.3,0.3-0.6,0.5-0.9,0.7
			c-0.3,0.2-0.6,0.4-0.9,0.5c-0.3,0.1-0.6,0.2-1,0.3c-0.4,0.1-0.7,0.1-1.2,0.1c-0.6,0-1.1-0.1-1.6-0.2c-0.5-0.2-0.9-0.4-1.2-0.7
			c-0.3-0.3-0.6-0.7-0.8-1.1c-0.2-0.4-0.3-0.9-0.3-1.5c0-0.4,0.1-0.9,0.3-1.4c0.2-0.5,0.6-0.9,1.2-1.3s1.3-0.7,2.3-1
			c0.9-0.3,2.1-0.4,3.6-0.4v-0.5c0-0.7-0.2-1.3-0.5-1.6c-0.3-0.3-0.7-0.5-1.3-0.5c-0.4,0-0.8,0-1.1,0.1c-0.3,0.1-0.5,0.2-0.8,0.3
			c-0.2,0.1-0.4,0.2-0.6,0.3c-0.2,0.1-0.5,0.1-0.8,0.1c-0.3,0-0.5-0.1-0.7-0.2c-0.2-0.1-0.3-0.3-0.4-0.5l-0.7-1.2
			c0.8-0.7,1.6-1.2,2.5-1.5c0.9-0.3,1.9-0.5,3-0.5c0.8,0,1.4,0.1,2.1,0.4c0.6,0.2,1.1,0.6,1.6,1c0.4,0.4,0.7,1,1,1.6
			c0.2,0.6,0.3,1.3,0.3,2v7.9H241.1z M236.8,158.2c0.5,0,0.9-0.1,1.3-0.3c0.4-0.2,0.7-0.4,1.1-0.8v-1.7c-0.8,0-1.4,0-1.9,0.1
			s-0.9,0.2-1.2,0.4c-0.3,0.1-0.5,0.3-0.6,0.5c-0.1,0.2-0.2,0.4-0.2,0.6c0,0.4,0.1,0.7,0.4,0.9C236,158.1,236.3,158.2,236.8,158.2z"
			/>
		<path class="st9" d="M255,163.7c-0.1,0.3-0.3,0.4-0.4,0.6c-0.2,0.1-0.4,0.2-0.8,0.2H251l2.4-5.1l-5-11.5h3.3
			c0.3,0,0.5,0.1,0.7,0.2c0.2,0.1,0.3,0.3,0.3,0.5l2.1,5.4c0.2,0.5,0.4,1,0.5,1.5c0.1-0.3,0.2-0.5,0.3-0.8c0.1-0.3,0.2-0.5,0.3-0.8
			l1.9-5.4c0.1-0.2,0.2-0.3,0.4-0.5c0.2-0.1,0.4-0.2,0.6-0.2h3L255,163.7z"/>
		<path class="st9" d="M265.7,158.6c0-0.3,0.1-0.6,0.2-0.8c0.1-0.3,0.3-0.5,0.4-0.7c0.2-0.2,0.4-0.3,0.7-0.4
			c0.3-0.1,0.5-0.2,0.8-0.2c0.3,0,0.6,0.1,0.8,0.2c0.3,0.1,0.5,0.3,0.7,0.4c0.2,0.2,0.3,0.4,0.5,0.7c0.1,0.3,0.2,0.5,0.2,0.8
			c0,0.3-0.1,0.6-0.2,0.8c-0.1,0.3-0.3,0.5-0.5,0.7s-0.4,0.3-0.7,0.4c-0.3,0.1-0.5,0.2-0.8,0.2c-0.3,0-0.6-0.1-0.8-0.2
			c-0.3-0.1-0.5-0.3-0.7-0.4s-0.3-0.4-0.4-0.7C265.7,159.1,265.7,158.9,265.7,158.6z"/>
		<path class="st9" d="M286,150.9c-0.1,0.1-0.2,0.2-0.3,0.3c-0.1,0.1-0.3,0.1-0.4,0.1c-0.2,0-0.4,0-0.5-0.1
			c-0.1-0.1-0.3-0.2-0.5-0.3c-0.2-0.1-0.4-0.2-0.7-0.3c-0.3-0.1-0.6-0.1-0.9-0.1c-0.5,0-0.9,0.1-1.2,0.3c-0.3,0.2-0.6,0.4-0.8,0.7
			c-0.2,0.3-0.4,0.7-0.5,1.2c-0.1,0.5-0.2,1-0.2,1.5c0,1.2,0.2,2.1,0.7,2.8c0.5,0.6,1.1,1,1.9,1c0.4,0,0.8-0.1,1-0.2
			c0.3-0.1,0.5-0.2,0.6-0.4c0.2-0.1,0.3-0.3,0.5-0.4c0.1-0.1,0.3-0.2,0.6-0.2c0.3,0,0.5,0.1,0.7,0.3l1.1,1.3
			c-0.4,0.4-0.8,0.8-1.2,1.1c-0.4,0.3-0.9,0.5-1.3,0.7c-0.4,0.2-0.9,0.3-1.4,0.3c-0.5,0.1-0.9,0.1-1.3,0.1c-0.8,0-1.5-0.1-2.2-0.4
			c-0.7-0.3-1.3-0.7-1.8-1.3c-0.5-0.6-0.9-1.2-1.3-2c-0.3-0.8-0.5-1.7-0.5-2.8c0-0.9,0.1-1.8,0.4-2.5c0.3-0.8,0.7-1.5,1.2-2
			c0.5-0.6,1.2-1,2-1.4c0.8-0.3,1.7-0.5,2.7-0.5c1,0,1.8,0.2,2.6,0.5c0.7,0.3,1.4,0.8,2,1.4L286,150.9z"/>
		<path class="st9" d="M299.2,147.7c1,0,1.8,0.1,2.6,0.4c0.8,0.3,1.5,0.7,2,1.3c0.6,0.6,1,1.2,1.3,2c0.3,0.8,0.5,1.7,0.5,2.7
			c0,1-0.2,1.9-0.5,2.7s-0.7,1.5-1.3,2c-0.6,0.6-1.2,1-2,1.3c-0.8,0.3-1.7,0.5-2.6,0.5c-1,0-1.8-0.2-2.6-0.5c-0.8-0.3-1.5-0.7-2-1.3
			c-0.6-0.6-1-1.2-1.3-2s-0.5-1.7-0.5-2.7c0-1,0.2-1.9,0.5-2.7c0.3-0.8,0.8-1.5,1.3-2c0.6-0.6,1.2-1,2-1.3
			C297.3,147.9,298.2,147.7,299.2,147.7z M299.2,157.9c0.9,0,1.5-0.3,1.9-0.9c0.4-0.6,0.6-1.5,0.6-2.8c0-1.2-0.2-2.2-0.6-2.8
			c-0.4-0.6-1-0.9-1.9-0.9c-0.9,0-1.5,0.3-2,0.9c-0.4,0.6-0.6,1.5-0.6,2.8c0,1.2,0.2,2.2,0.6,2.8
			C297.6,157.6,298.3,157.9,299.2,157.9z"/>
		<path class="st9" d="M312.5,160.5v-12.6h2.3c0.2,0,0.4,0.1,0.6,0.2c0.2,0.1,0.3,0.3,0.3,0.5l0.2,0.7c0.2-0.2,0.4-0.4,0.7-0.6
			c0.2-0.2,0.5-0.3,0.7-0.5c0.3-0.1,0.5-0.2,0.8-0.3c0.3-0.1,0.6-0.1,1-0.1c0.8,0,1.4,0.2,1.9,0.6c0.5,0.4,0.9,0.9,1.1,1.6
			c0.2-0.4,0.5-0.7,0.8-1s0.6-0.5,1-0.7c0.4-0.2,0.7-0.3,1.1-0.4c0.4-0.1,0.8-0.1,1.2-0.1c0.7,0,1.4,0.1,1.9,0.3
			c0.6,0.2,1,0.5,1.4,0.9c0.4,0.4,0.7,0.9,0.9,1.5c0.2,0.6,0.3,1.3,0.3,2v8h-3.8v-8c0-1.3-0.6-2-1.7-2c-0.5,0-0.9,0.2-1.3,0.5
			c-0.3,0.3-0.5,0.8-0.5,1.4v8h-3.8v-8c0-0.7-0.1-1.2-0.4-1.5c-0.3-0.3-0.7-0.4-1.2-0.4c-0.3,0-0.7,0.1-1,0.2
			c-0.3,0.2-0.6,0.4-0.9,0.6v9.1H312.5z"/>
	</g>
</g>
<path class="st8" d="M141.8,260.6h-35c-1.3,0-2.3-1-2.3-2.3l0,0c0-1.3,1-2.3,2.3-2.3h35c1.3,0,2.3,1,2.3,2.3l0,0
	C144.1,259.6,143.1,260.6,141.8,260.6z"/>
<path class="st8" d="M171.3,272.2h-64.5c-1.3,0-2.3-1-2.3-2.3l0,0c0-1.3,1-2.3,2.3-2.3h64.5c1.3,0,2.3,1,2.3,2.3l0,0
	C173.6,271.1,172.6,272.2,171.3,272.2z"/>
<path class="st8" d="M141.8,296.5h-35c-1.3,0-2.3-1-2.3-2.3l0,0c0-1.3,1-2.3,2.3-2.3h35c1.3,0,2.3,1,2.3,2.3l0,0
	C144.1,295.4,143.1,296.5,141.8,296.5z"/>
<path class="st8" d="M171.3,308h-64.5c-1.3,0-2.3-1-2.3-2.3l0,0c0-1.3,1-2.3,2.3-2.3h64.5c1.3,0,2.3,1,2.3,2.3l0,0
	C173.6,307,172.6,308,171.3,308z"/>
<path class="st8" d="M141.8,200.1h-35c-1.3,0-2.3-1-2.3-2.3v0c0-1.3,1-2.3,2.3-2.3h35c1.3,0,2.3,1,2.3,2.3v0
	C144.1,199,143.1,200.1,141.8,200.1z"/>
<path class="st8" d="M171.3,211h-64.5c-1.3,0-2.3-1-2.3-2.3l0,0c0-1.3,1-2.3,2.3-2.3h64.5c1.3,0,2.3,1,2.3,2.3l0,0
	C173.6,210,172.6,211,171.3,211z"/>
<path class="st8" d="M298.2,203.2h-35c-1.3,0-2.3-1-2.3-2.3l0,0c0-1.3,1-2.3,2.3-2.3h35c1.3,0,2.3,1,2.3,2.3l0,0
	C300.6,202.2,299.5,203.2,298.2,203.2z"/>
<path class="st8" d="M388.6,241.1h-31.9c-2.1,0-3.9-1.7-3.9-3.9v0c0-2.1,1.7-3.9,3.9-3.9h31.9c2.1,0,3.9,1.7,3.9,3.9v0
	C392.5,239.3,390.8,241.1,388.6,241.1z"/>
<path class="st8" d="M327.7,214.2h-64.5c-1.3,0-2.3-1-2.3-2.3l0,0c0-1.3,1-2.3,2.3-2.3h64.5c1.3,0,2.3,1,2.3,2.3l0,0
	C330,213.1,329,214.2,327.7,214.2z"/>
<rect x="191.4" y="262.6" class="st1" width="208.1" height="67.8"/>
<rect x="191.4" y="262.6" class="st8" width="57" height="67.8"/>
<path class="st8" d="M298.2,280.4h-35c-1.3,0-2.3-1-2.3-2.3v0c0-1.3,1-2.3,2.3-2.3h35c1.3,0,2.3,1,2.3,2.3v0
	C300.6,279.3,299.5,280.4,298.2,280.4z"/>
<path class="st8" d="M388.6,319.3h-31.9c-2.1,0-3.9-1.7-3.9-3.9v0c0-2.1,1.7-3.9,3.9-3.9h31.9c2.1,0,3.9,1.7,3.9,3.9v0
	C392.5,317.6,390.8,319.3,388.6,319.3z"/>
<path class="st8" d="M327.7,291.4h-64.5c-1.3,0-2.3-1-2.3-2.3v0c0-1.3,1-2.3,2.3-2.3h64.5c1.3,0,2.3,1,2.3,2.3v0
	C330,290.3,329,291.4,327.7,291.4z"/>
</svg>
