<?xml version="1.0" encoding="utf-8"?>
<!-- Generator: Adobe Illustrator 22.1.0, SVG Export Plug-In . SVG Version: 6.00 Build 0)  -->
<svg version="1.1" id="Layer_1" xmlns="http://www.w3.org/2000/svg" xmlns:xlink="http://www.w3.org/1999/xlink" x="0px" y="0px"
	 viewBox="0 0 500.7 500.7" style="enable-background:new 0 0 500.7 500.7;" xml:space="preserve">
<style type="text/css">
	.st0{fill:#E0EDF5;}
	.st1{fill:#879FB3;}
	.st2{fill:#FFC007;}
	.st3{fill:#35C86F;}
	.st4{fill:#80633F;}
	.st5{fill:#EECDA2;}
	.st6{fill:#E8C290;}
	.st7{fill:#587582;}
	.st8{fill:#FFFFFF;}
	.st9{fill:#C1CFDB;}
	.st10{fill:#FFFFFF;stroke:#35C86F;stroke-width:10;stroke-miterlimit:10;}
</style>
<g>
	<g>
		<path class="st0" d="M396.1,226.8h-83c-3.8,0-6.9-3.1-6.9-6.9v-46.7c0-3.8,3.1-6.9,6.9-6.9h83c3.8,0,6.9,3.1,6.9,6.9v46.7
			C403.1,223.7,399.9,226.8,396.1,226.8z"/>
		<path class="st0" d="M306.2,194.6v0.6v46.5l30.7-14.9C336.9,226.8,331,194.3,306.2,194.6z"/>
		<g>
			<g>
				<path class="st1" d="M324.2,201.2h3.3l1.1-9.3l0.3-1.1l-2.3,1.8c-0.1,0.1-0.3,0.2-0.4,0.2c-0.1,0-0.2,0-0.4,0
					c-0.2,0-0.4,0-0.5-0.1c-0.1-0.1-0.2-0.2-0.3-0.3l-0.9-1.5l5.9-4.5h2.9l-1.8,14.7h2.9l-0.3,2.6h-9.8L324.2,201.2z"/>
				<path class="st1" d="M343.8,204c-0.8,0-1.6-0.1-2.3-0.3c-0.7-0.2-1.3-0.5-1.7-0.9c-0.5-0.4-0.9-0.9-1.1-1.4
					c-0.3-0.6-0.4-1.2-0.4-1.9c0-0.5,0.1-1.1,0.2-1.5c0.1-0.5,0.3-0.9,0.6-1.3c0.3-0.4,0.6-0.8,1.1-1.1s1-0.6,1.6-0.8
					c-0.7-0.3-1.1-0.8-1.5-1.3c-0.3-0.5-0.5-1.2-0.5-1.9c0-0.8,0.2-1.4,0.5-2.1c0.3-0.6,0.8-1.2,1.3-1.7c0.6-0.5,1.2-0.8,2-1.1
					c0.7-0.3,1.6-0.4,2.4-0.4c0.8,0,1.4,0.1,2.1,0.3c0.6,0.2,1.2,0.5,1.6,0.9s0.8,0.8,1,1.3c0.2,0.5,0.4,1.1,0.4,1.7
					c0,1-0.2,1.9-0.7,2.6c-0.5,0.7-1.2,1.3-2.2,1.7c0.9,0.3,1.5,0.8,1.9,1.4c0.4,0.6,0.6,1.3,0.6,2.1c0,0.9-0.2,1.6-0.5,2.3
					c-0.3,0.7-0.8,1.3-1.4,1.8c-0.6,0.5-1.3,0.9-2.2,1.1C345.7,203.9,344.8,204,343.8,204z M344.2,201.3c0.5,0,0.9-0.1,1.3-0.2
					c0.4-0.2,0.6-0.4,0.9-0.6c0.2-0.3,0.4-0.6,0.5-0.9c0.1-0.4,0.2-0.7,0.2-1.2c0-0.3,0-0.6-0.1-0.9c-0.1-0.3-0.2-0.5-0.4-0.7
					c-0.2-0.2-0.4-0.3-0.7-0.4c-0.3-0.1-0.6-0.2-1-0.2c-0.5,0-1,0.1-1.3,0.2c-0.4,0.1-0.6,0.4-0.9,0.6s-0.4,0.6-0.5,0.9
					c-0.1,0.4-0.1,0.7-0.1,1.2c0,0.3,0,0.6,0.1,0.9c0.1,0.3,0.2,0.5,0.4,0.7c0.2,0.2,0.4,0.3,0.7,0.5
					C343.5,201.3,343.8,201.3,344.2,201.3z M345.1,193.6c0.5,0,0.9-0.1,1.2-0.3c0.3-0.2,0.6-0.4,0.7-0.7c0.2-0.3,0.3-0.6,0.3-0.9
					c0.1-0.3,0.1-0.6,0.1-0.9c0-0.2,0-0.5-0.1-0.7c-0.1-0.2-0.2-0.4-0.3-0.6c-0.1-0.2-0.3-0.3-0.6-0.4c-0.2-0.1-0.5-0.2-0.9-0.2
					c-0.4,0-0.8,0.1-1.1,0.2c-0.3,0.1-0.6,0.3-0.8,0.6c-0.2,0.2-0.3,0.5-0.4,0.8c-0.1,0.3-0.1,0.6-0.1,1c0,0.3,0,0.5,0.1,0.7
					c0.1,0.2,0.2,0.4,0.3,0.6c0.1,0.2,0.3,0.3,0.6,0.5C344.5,193.5,344.8,193.6,345.1,193.6z"/>
				<path class="st1" d="M368.4,186.5l-0.2,1.4c0,0.3-0.1,0.6-0.2,0.9c-0.1,0.3-0.2,0.5-0.3,0.7l-8.1,13.6c-0.1,0.2-0.3,0.4-0.6,0.6
					c-0.3,0.2-0.5,0.2-0.8,0.2h-3l7.8-12.6c0.2-0.3,0.4-0.6,0.6-0.9c0.2-0.3,0.5-0.5,0.7-0.7h-7.7c-0.2,0-0.4-0.1-0.5-0.2
					c-0.1-0.1-0.2-0.3-0.2-0.5c0-0.1,0-0.2,0-0.4c0-0.2,0-0.4,0.1-0.6c0-0.2,0.1-0.5,0.1-0.7c0-0.2,0.1-0.5,0.1-0.7H368.4z"/>
				<path class="st1" d="M371.1,192.6h1.4c0.3-1,0.7-1.8,1.2-2.6c0.5-0.8,1.1-1.4,1.7-2c0.7-0.5,1.4-1,2.1-1.2
					c0.8-0.3,1.6-0.4,2.4-0.4c0.6,0,1.1,0.1,1.5,0.2c0.5,0.1,0.9,0.3,1.3,0.5c0.4,0.2,0.7,0.5,1,0.8c0.3,0.3,0.5,0.6,0.8,1l-1.4,1.3
					c-0.1,0.1-0.2,0.2-0.3,0.3c-0.1,0.1-0.3,0.1-0.5,0.1c-0.1,0-0.2,0-0.3-0.1c-0.1-0.1-0.2-0.1-0.3-0.2c-0.1-0.1-0.2-0.2-0.3-0.3
					c-0.1-0.1-0.2-0.2-0.4-0.3c-0.1-0.1-0.3-0.2-0.5-0.2c-0.2-0.1-0.5-0.1-0.8-0.1c-0.8,0-1.5,0.3-2.2,0.8c-0.6,0.6-1.1,1.4-1.5,2.4
					h5.7l-0.1,1.1c0,0.1-0.1,0.2-0.1,0.3c-0.1,0.1-0.1,0.2-0.2,0.3c-0.1,0.1-0.2,0.1-0.3,0.2c-0.1,0.1-0.3,0.1-0.4,0.1h-4.9
					c0,0.2,0,0.4-0.1,0.6c0,0.2,0,0.4-0.1,0.6h4.7l-0.1,1c0,0.1-0.1,0.2-0.1,0.3c-0.1,0.1-0.1,0.2-0.2,0.3c-0.1,0.1-0.2,0.1-0.3,0.2
					c-0.1,0-0.3,0.1-0.4,0.1h-3.5c0.1,1.2,0.4,2,0.8,2.6c0.5,0.6,1.1,0.9,1.8,0.9c0.5,0,0.9-0.1,1.2-0.2c0.3-0.1,0.6-0.3,0.8-0.5
					c0.2-0.2,0.4-0.3,0.5-0.5c0.2-0.1,0.3-0.2,0.5-0.2c0.1,0,0.2,0,0.3,0c0.1,0,0.1,0.1,0.2,0.2l1.4,1.4c-0.7,0.9-1.5,1.6-2.4,2
					c-0.9,0.5-2,0.7-3.1,0.7c-0.9,0-1.7-0.2-2.4-0.5c-0.7-0.3-1.3-0.8-1.8-1.3c-0.5-0.6-0.9-1.3-1.1-2c-0.3-0.8-0.4-1.7-0.5-2.6
					h-1.4l0.2-1.9h1.2c0-0.2,0-0.4,0.1-0.6c0-0.2,0-0.4,0.1-0.6h-1.2L371.1,192.6z"/>
			</g>
		</g>
		<g>
			<polygon class="st2" points="321,246.1 322.7,250.7 327.5,250.9 323.7,253.9 325,258.6 321,255.9 317,258.6 318.3,253.9 
				314.5,250.9 319.3,250.7 			"/>
			<polygon class="st2" points="337.2,246.1 338.9,250.7 343.7,250.9 339.9,253.9 341.2,258.6 337.2,255.9 333.2,258.6 334.5,253.9 
				330.7,250.9 335.5,250.7 			"/>
			<polygon class="st2" points="353.4,246.1 355.1,250.7 359.9,250.9 356.1,253.9 357.4,258.6 353.4,255.9 349.3,258.6 350.7,253.9 
				346.9,250.9 351.7,250.7 			"/>
			<polygon class="st2" points="369.6,246.1 371.3,250.7 376.1,250.9 372.3,253.9 373.6,258.6 369.6,255.9 365.5,258.6 366.9,253.9 
				363,250.9 367.9,250.7 			"/>
			<polygon class="st0" points="385.8,246.1 387.5,250.7 392.3,250.9 388.5,253.9 389.8,258.6 385.8,255.9 381.7,258.6 383,253.9 
				379.2,250.9 384.1,250.7 			"/>
		</g>
		<g>
			<path class="st3" d="M194.2,94.9L194.2,94.9c8.5-3.3,17.8-3.2,26.3,0.2l0.5,0.2l0.1-4.8c0.1-4.4-3.2-8.1-7.3-8.1l-11.9-0.2
				c-4.1-0.1-7.5,3.5-7.5,7.9L194.2,94.9z"/>
			<path class="st4" d="M203.5,122.2l7.4,0.1c5.4,0.1,9.7-4.2,9.8-9.6l0.2-17.7l-5.2-2.1c-5.2-2.1-11.1-2.2-16.4-0.2l-5.2,1.9
				l-0.2,17.7C193.8,117.8,198.1,122.2,203.5,122.2z"/>
			<path class="st5" d="M207.3,91.4L207.3,91.4L207.3,91.4L207.3,91.4L207.3,91.4l9.5,2.1c1.3,0.3,2.1,1.4,2.1,2.7l-0.1,10.9
				c0,2.5-2.1,4.5-4.6,4.4l0,0c-1.2,0-2.3-0.5-3.2-1.4l-0.1-0.1c-0.8-0.9-2-1.3-3.2-1.4l-0.7,0l0,0l-0.7,0c-1.2,0-2.3,0.4-3.2,1.3
				l-0.1,0.1c-0.9,0.8-2,1.3-3.2,1.3h0c-2.5,0-4.5-2.1-4.4-4.6l0.1-10.9c0-1.3,0.9-2.4,2.2-2.6L207.3,91.4z"/>
			<path class="st6" d="M194,106.6l-1.9,0c-0.3,0-0.6-0.3-0.6-0.6l0.1-5.2c0-0.3,0.3-0.6,0.6-0.6l1.9,0L194,106.6z"/>
			<path class="st6" d="M220.9,100.6l1.9,0c0.3,0,0.6,0.3,0.6,0.6l-0.1,5.2c0,0.3-0.3,0.6-0.6,0.6l-1.9,0L220.9,100.6z"/>
			<g>
				<g>
					<path class="st7" d="M194.1,95.4c10.5-3.6,17.1-3.6,27.6,0.4c0.7,0.3,1.4-0.1,1.7-0.7c0,0,0,0,0,0c0.3-0.7-0.1-1.4-0.8-1.7
						c-11.1-4.2-18.1-4.3-29.4-0.4c-0.7,0.2-1,1-0.8,1.7c0,0,0,0,0,0C192.7,95.3,193.5,95.6,194.1,95.4z"/>
				</g>
			</g>
			<path class="st7" d="M205.7,83.4l3.5,0c0.1,0,0.2-0.1,0.2-0.2l0-1.5c0-0.1-0.1-0.2-0.2-0.2l-3.5,0c-0.1,0-0.2,0.1-0.2,0.2l0,1.5
				C205.5,83.3,205.6,83.4,205.7,83.4z"/>
		</g>
		<path class="st3" d="M316.4,86.6l-83,0c-3.8,0-6.9-3.1-6.9-6.9V32.9c0-3.8,3.1-6.9,6.9-6.9h83c3.8,0,6.9,3.1,6.9,6.9v46.7
			C323.4,83.4,320.2,86.6,316.4,86.6z"/>
		<path class="st3" d="M226.5,54.3v0.6v46.5l30.7-14.9C257.2,86.6,251.3,54.1,226.5,54.3z"/>
		<g>
			<path class="st8" d="M244.5,61h3.3l1.1-9.3l0.3-1.1l-2.3,1.8c-0.1,0.1-0.3,0.2-0.4,0.2c-0.1,0-0.2,0-0.4,0c-0.2,0-0.4,0-0.5-0.1
				s-0.2-0.2-0.3-0.3l-0.9-1.5l5.9-4.5h2.9L251.4,61h2.9l-0.3,2.6h-9.8L244.5,61z"/>
			<path class="st8" d="M266.9,46.1c0.8,0,1.5,0.1,2.1,0.3c0.6,0.2,1.1,0.5,1.5,0.9c0.4,0.4,0.7,0.8,0.9,1.3c0.2,0.5,0.3,1,0.3,1.5
				c0,0.6-0.1,1.2-0.2,1.6c-0.1,0.5-0.3,0.9-0.6,1.2c-0.3,0.3-0.6,0.6-1,0.8c-0.4,0.2-0.8,0.4-1.3,0.5c0.8,0.3,1.4,0.8,1.8,1.4
				c0.4,0.6,0.6,1.3,0.6,2.1c0,0.7-0.1,1.3-0.3,1.8c-0.2,0.5-0.4,1-0.7,1.5c-0.3,0.4-0.7,0.8-1.1,1.2c-0.4,0.3-0.9,0.6-1.4,0.8
				c-0.5,0.2-1,0.4-1.6,0.5c-0.6,0.1-1.1,0.2-1.7,0.2c-0.8,0-1.5-0.1-2.2-0.3c-0.6-0.2-1.2-0.5-1.6-0.8c-0.4-0.4-0.8-0.9-1.1-1.4
				c-0.3-0.6-0.5-1.3-0.7-2.1l1.7-0.6c0.2-0.1,0.3-0.1,0.4-0.1c0.1,0,0.3,0,0.4,0c0.2,0,0.5,0,0.6,0.1c0.2,0.1,0.3,0.2,0.4,0.4
				c0.3,0.7,0.6,1.2,0.9,1.5c0.4,0.3,0.9,0.5,1.5,0.5c0.5,0,0.9-0.1,1.2-0.2c0.4-0.2,0.7-0.4,0.9-0.7c0.2-0.3,0.4-0.6,0.6-1
				c0.1-0.4,0.2-0.8,0.2-1.2c0-0.3,0-0.5-0.1-0.8c-0.1-0.2-0.3-0.4-0.5-0.6c-0.2-0.2-0.6-0.3-1-0.4c-0.4-0.1-1-0.1-1.7-0.1l0.3-2.4
				c0.7,0,1.3-0.1,1.8-0.2c0.5-0.1,0.9-0.3,1.1-0.5c0.3-0.2,0.5-0.5,0.6-0.8c0.1-0.3,0.2-0.7,0.2-1.1c0-0.6-0.2-1.1-0.5-1.4
				c-0.3-0.3-0.8-0.5-1.4-0.5c-0.6,0-1.1,0.2-1.5,0.5c-0.4,0.3-0.7,0.7-0.9,1.2c-0.2,0.3-0.3,0.6-0.6,0.7s-0.5,0.2-0.8,0.2
				c-0.1,0-0.1,0-0.2,0c-0.1,0-0.2,0-0.3,0l-1.8-0.3c0.2-0.9,0.6-1.6,1-2.2c0.4-0.6,0.9-1.2,1.5-1.6c0.6-0.4,1.2-0.7,1.9-1
				C265.4,46.2,266.1,46.1,266.9,46.1z"/>
			<path class="st8" d="M282.4,46.1c0.8,0,1.5,0.1,2.2,0.4c0.7,0.3,1.2,0.7,1.7,1.3c0.5,0.6,0.8,1.3,1.1,2.2
				c0.3,0.9,0.4,1.9,0.4,3.1c0,1.8-0.2,3.4-0.6,4.7c-0.4,1.3-0.9,2.4-1.6,3.3c-0.7,0.9-1.5,1.5-2.4,2c-0.9,0.4-1.9,0.6-3,0.6
				c-0.8,0-1.5-0.1-2.2-0.4c-0.7-0.3-1.2-0.7-1.7-1.3c-0.5-0.6-0.8-1.3-1.1-2.2c-0.3-0.9-0.4-1.9-0.4-3.1c0-1.8,0.2-3.4,0.6-4.7
				c0.4-1.3,0.9-2.4,1.6-3.3c0.7-0.9,1.5-1.5,2.4-2C280.3,46.3,281.3,46.1,282.4,46.1z M280.7,60.9c0.5,0,0.9-0.2,1.3-0.5
				c0.4-0.3,0.8-0.8,1.1-1.4c0.3-0.6,0.5-1.4,0.7-2.4c0.2-1,0.2-2.1,0.2-3.4c0-0.8-0.1-1.5-0.2-2.1c-0.1-0.5-0.3-1-0.5-1.3
				s-0.4-0.6-0.7-0.7c-0.3-0.1-0.5-0.2-0.8-0.2c-0.5,0-0.9,0.2-1.3,0.5s-0.8,0.8-1.1,1.4c-0.3,0.6-0.5,1.4-0.7,2.4
				c-0.2,1-0.2,2.1-0.2,3.4c0,0.8,0.1,1.5,0.2,2.1c0.1,0.6,0.3,1,0.5,1.3c0.2,0.3,0.4,0.5,0.7,0.7C280.2,60.9,280.4,60.9,280.7,60.9
				z"/>
			<path class="st8" d="M291.4,52.4h1.4c0.3-1,0.7-1.8,1.2-2.6c0.5-0.8,1.1-1.4,1.7-2s1.4-1,2.1-1.2c0.8-0.3,1.6-0.4,2.4-0.4
				c0.6,0,1.1,0.1,1.5,0.2c0.5,0.1,0.9,0.3,1.3,0.5s0.7,0.5,1,0.8c0.3,0.3,0.5,0.6,0.8,1l-1.4,1.3c-0.1,0.1-0.2,0.2-0.3,0.3
				s-0.3,0.1-0.5,0.1c-0.1,0-0.2,0-0.3-0.1c-0.1-0.1-0.2-0.1-0.3-0.2c-0.1-0.1-0.2-0.2-0.3-0.3c-0.1-0.1-0.2-0.2-0.4-0.3
				c-0.1-0.1-0.3-0.2-0.5-0.2c-0.2-0.1-0.5-0.1-0.8-0.1c-0.8,0-1.5,0.3-2.2,0.8c-0.6,0.6-1.1,1.4-1.5,2.4h5.7l-0.1,1.1
				c0,0.1-0.1,0.2-0.1,0.3c-0.1,0.1-0.1,0.2-0.2,0.3c-0.1,0.1-0.2,0.1-0.3,0.2c-0.1,0.1-0.3,0.1-0.4,0.1h-4.9c0,0.2,0,0.4-0.1,0.6
				c0,0.2,0,0.4-0.1,0.6h4.7l-0.1,1c0,0.1-0.1,0.2-0.1,0.3c-0.1,0.1-0.1,0.2-0.2,0.3c-0.1,0.1-0.2,0.1-0.3,0.2
				c-0.1,0-0.3,0.1-0.4,0.1h-3.5c0.1,1.2,0.4,2,0.8,2.6c0.5,0.6,1.1,0.9,1.8,0.9c0.5,0,0.9-0.1,1.2-0.2c0.3-0.1,0.6-0.3,0.8-0.5
				c0.2-0.2,0.4-0.3,0.5-0.5c0.2-0.1,0.3-0.2,0.5-0.2c0.1,0,0.2,0,0.3,0c0.1,0,0.1,0.1,0.2,0.2l1.4,1.4c-0.7,0.9-1.5,1.6-2.4,2
				c-0.9,0.5-2,0.7-3.1,0.7c-0.9,0-1.7-0.2-2.4-0.5c-0.7-0.3-1.3-0.8-1.8-1.3c-0.5-0.6-0.9-1.3-1.1-2c-0.3-0.8-0.4-1.7-0.5-2.6h-1.4
				l0.2-1.9h1.2c0-0.2,0-0.4,0.1-0.6c0-0.2,0-0.4,0.1-0.6h-1.2L291.4,52.4z"/>
		</g>
		<g>
			<polygon class="st2" points="235.4,109.9 237,114.5 241.9,114.7 238.1,117.7 239.4,122.3 235.4,119.6 231.3,122.3 232.6,117.7 
				228.8,114.7 233.7,114.5 			"/>
			<polygon class="st2" points="251.6,109.9 253.2,114.5 258.1,114.7 254.3,117.7 255.6,122.3 251.6,119.6 247.5,122.3 248.8,117.7 
				245,114.7 249.9,114.5 			"/>
			<polygon class="st2" points="267.7,109.9 269.4,114.5 274.3,114.7 270.5,117.7 271.8,122.3 267.7,119.6 263.7,122.3 265,117.7 
				261.2,114.7 266.1,114.5 			"/>
			<polygon class="st2" points="283.9,109.9 285.6,114.5 290.5,114.7 286.7,117.7 288,122.3 283.9,119.6 279.9,122.3 281.2,117.7 
				277.4,114.7 282.3,114.5 			"/>
			<polygon class="st2" points="300.1,109.9 301.8,114.5 306.7,114.7 302.9,117.7 304.2,122.3 300.1,119.6 296.1,122.3 297.4,117.7 
				293.6,114.7 298.4,114.5 			"/>
		</g>
		<path class="st0" d="M212.1,226.8h-83c-3.8,0-6.9-3.1-6.9-6.9v-46.7c0-3.8,3.1-6.9,6.9-6.9h83c3.8,0,6.9,3.1,6.9,6.9v46.7
			C219,223.7,215.9,226.8,212.1,226.8z"/>
		<path class="st0" d="M122.1,194.6v0.6v46.5l30.7-14.9C152.8,226.8,147,194.3,122.1,194.6z"/>
		<g>
			<g>
				<path class="st1" d="M140.1,201.2h3.3l1.1-9.3l0.3-1.1l-2.3,1.8c-0.1,0.1-0.3,0.2-0.4,0.2c-0.1,0-0.2,0-0.4,0
					c-0.2,0-0.4,0-0.5-0.1c-0.1-0.1-0.2-0.2-0.3-0.3L140,191l5.9-4.5h2.9l-1.8,14.7h2.9l-0.3,2.6h-9.8L140.1,201.2z"/>
				<path class="st1" d="M166.7,188c0,0.2-0.1,0.5-0.2,0.7c-0.1,0.2-0.2,0.4-0.4,0.5c-0.2,0.1-0.4,0.3-0.7,0.3
					c-0.3,0.1-0.6,0.1-1,0.1h-4.2l-0.9,3c0.3-0.1,0.6-0.1,0.9-0.1c0.3,0,0.6,0,0.9,0c0.8,0,1.6,0.1,2.2,0.4c0.6,0.2,1.2,0.6,1.6,1
					c0.4,0.4,0.7,0.9,1,1.5c0.2,0.6,0.3,1.2,0.3,1.8c0,1-0.2,1.9-0.6,2.8c-0.4,0.8-0.9,1.6-1.6,2.2c-0.7,0.6-1.4,1.1-2.3,1.4
					c-0.9,0.3-1.9,0.5-2.9,0.5c-0.6,0-1.1-0.1-1.6-0.2c-0.5-0.1-0.9-0.3-1.4-0.5c-0.4-0.2-0.8-0.4-1.1-0.7c-0.3-0.3-0.6-0.5-0.9-0.8
					l1.3-1.5c0.1-0.2,0.3-0.3,0.4-0.3c0.2-0.1,0.3-0.1,0.5-0.1c0.2,0,0.4,0.1,0.6,0.2c0.2,0.1,0.4,0.3,0.6,0.4
					c0.2,0.2,0.5,0.3,0.8,0.4c0.3,0.1,0.7,0.2,1.2,0.2c0.6,0,1-0.1,1.5-0.3c0.4-0.2,0.7-0.5,1-0.8c0.3-0.3,0.5-0.7,0.6-1.1
					c0.1-0.4,0.2-0.9,0.2-1.3c0-0.7-0.2-1.2-0.6-1.7c-0.4-0.4-1.1-0.6-1.9-0.6c-0.3,0-0.7,0-1.1,0.1s-0.8,0.2-1.3,0.3l-2.1-0.6
					l2.5-8.6h8.8L166.7,188z"/>
				<path class="st1" d="M181.5,197.2h1.8l-0.3,2c0,0.2-0.1,0.3-0.2,0.5c-0.1,0.1-0.3,0.2-0.5,0.2h-1l-0.5,4h-3.2l0.5-4H171
					c-0.2,0-0.4-0.1-0.6-0.2s-0.3-0.3-0.3-0.6l-0.1-1.6l9.4-10.8h3.5L181.5,197.2z M178.8,192.4c0-0.2,0.1-0.5,0.1-0.8
					c0.1-0.3,0.1-0.6,0.2-0.8l-5.4,6.4h4.5L178.8,192.4z"/>
				<path class="st1" d="M187,192.6h1.4c0.3-1,0.7-1.8,1.2-2.6c0.5-0.8,1.1-1.4,1.7-2c0.7-0.5,1.4-1,2.1-1.2
					c0.8-0.3,1.6-0.4,2.4-0.4c0.6,0,1.1,0.1,1.5,0.2c0.5,0.1,0.9,0.3,1.3,0.5c0.4,0.2,0.7,0.5,1,0.8c0.3,0.3,0.5,0.6,0.8,1l-1.4,1.3
					c-0.1,0.1-0.2,0.2-0.3,0.3c-0.1,0.1-0.3,0.1-0.5,0.1c-0.1,0-0.2,0-0.3-0.1c-0.1-0.1-0.2-0.1-0.3-0.2c-0.1-0.1-0.2-0.2-0.3-0.3
					c-0.1-0.1-0.2-0.2-0.4-0.3c-0.1-0.1-0.3-0.2-0.5-0.2c-0.2-0.1-0.5-0.1-0.8-0.1c-0.8,0-1.5,0.3-2.2,0.8c-0.6,0.6-1.1,1.4-1.5,2.4
					h5.7l-0.1,1.1c0,0.1-0.1,0.2-0.1,0.3c-0.1,0.1-0.1,0.2-0.2,0.3c-0.1,0.1-0.2,0.1-0.3,0.2c-0.1,0.1-0.3,0.1-0.4,0.1h-4.9
					c0,0.2,0,0.4-0.1,0.6c0,0.2,0,0.4-0.1,0.6h4.7l-0.1,1c0,0.1-0.1,0.2-0.1,0.3c-0.1,0.1-0.1,0.2-0.2,0.3c-0.1,0.1-0.2,0.1-0.3,0.2
					c-0.1,0-0.3,0.1-0.4,0.1h-3.5c0.1,1.2,0.4,2,0.8,2.6c0.5,0.6,1.1,0.9,1.8,0.9c0.5,0,0.9-0.1,1.2-0.2c0.3-0.1,0.6-0.3,0.8-0.5
					c0.2-0.2,0.4-0.3,0.5-0.5c0.2-0.1,0.3-0.2,0.5-0.2c0.1,0,0.2,0,0.3,0c0.1,0,0.1,0.1,0.2,0.2l1.4,1.4c-0.7,0.9-1.5,1.6-2.4,2
					s-2,0.7-3.1,0.7c-0.9,0-1.7-0.2-2.4-0.5c-0.7-0.3-1.3-0.8-1.8-1.3c-0.5-0.6-0.9-1.3-1.1-2c-0.3-0.8-0.4-1.7-0.5-2.6h-1.4
					l0.2-1.9h1.2c0-0.2,0-0.4,0.1-0.6c0-0.2,0-0.4,0.1-0.6h-1.2L187,192.6z"/>
			</g>
		</g>
		<g>
			<path class="st9" d="M117.3,240.8l1.9,0c0.3,0,0.6,0.3,0.6,0.6l-0.1,5.2c0,0.3-0.3,0.6-0.6,0.6l-1.9,0L117.3,240.8z"/>
			<g>
				<path class="st9" d="M90.6,235.2L90.6,235.2c8.5-3.3,17.8-3.2,26.3,0.2l0.5,0.2l0.1-4.8c0.1-4.4-3.2-8.1-7.3-8.1l-11.9-0.2
					c-4.1-0.1-7.5,3.5-7.5,7.9L90.6,235.2z"/>
				<path class="st9" d="M99.9,262.5l7.4,0.1c5.4,0.1,9.7-4.2,9.8-9.6l0.2-17.7l-5.2-2.1c-5.2-2.1-11.1-2.2-16.4-0.2l-5.2,1.9
					l-0.2,17.7C90.3,258,94.6,262.4,99.9,262.5z"/>
				<path class="st0" d="M103.7,231.6L103.7,231.6L103.7,231.6L103.7,231.6L103.7,231.6l9.5,2.1c1.3,0.3,2.1,1.4,2.1,2.7l-0.1,10.9
					c0,2.5-2.1,4.5-4.6,4.4l0,0c-1.2,0-2.3-0.5-3.2-1.4l-0.1-0.1c-0.8-0.9-2-1.3-3.2-1.4l-0.7,0l0,0l-0.7,0c-1.2,0-2.3,0.4-3.2,1.3
					l-0.1,0.1c-0.9,0.8-2,1.3-3.2,1.3l0,0c-2.5,0-4.5-2.1-4.4-4.6l0.1-10.9c0-1.3,0.9-2.4,2.2-2.6L103.7,231.6z"/>
				<path class="st9" d="M90.4,246.8l-1.9,0c-0.3,0-0.6-0.3-0.6-0.6l0.1-5.2c0-0.3,0.3-0.6,0.6-0.6l1.9,0L90.4,246.8z"/>
				<g>
					<g>
						<path class="st1" d="M90.6,235.6c10.5-3.6,17.1-3.6,27.6,0.4c0.7,0.3,1.4-0.1,1.7-0.7c0,0,0,0,0,0c0.3-0.7-0.1-1.4-0.8-1.7
							c-11.1-4.2-18.1-4.3-29.4-0.4c-0.7,0.2-1,1-0.8,1.7c0,0,0,0,0,0C89.1,235.5,89.9,235.9,90.6,235.6z"/>
					</g>
				</g>
				<path class="st1" d="M102.1,223.7l3.5,0c0.1,0,0.2-0.1,0.2-0.2l0-1.5c0-0.1-0.1-0.2-0.2-0.2l-3.5,0c-0.1,0-0.2,0.1-0.2,0.2
					l0,1.5C101.9,223.6,102,223.7,102.1,223.7z"/>
			</g>
		</g>
		<g>
			<path class="st9" d="M300.6,240.8l1.9,0c0.3,0,0.6,0.3,0.6,0.6l-0.1,5.2c0,0.3-0.3,0.6-0.6,0.6l-1.9,0L300.6,240.8z"/>
			<g>
				<path class="st9" d="M273.9,235.2L273.9,235.2c8.5-3.3,17.8-3.2,26.3,0.2l0.5,0.2l0.1-4.8c0.1-4.4-3.2-8.1-7.3-8.1l-11.9-0.2
					c-4.1-0.1-7.5,3.5-7.5,7.9L273.9,235.2z"/>
				<path class="st9" d="M283.2,262.5l7.4,0.1c5.4,0.1,9.7-4.2,9.8-9.6l0.2-17.7l-5.2-2.1c-5.2-2.1-11.1-2.2-16.4-0.2l-5.2,1.9
					l-0.2,17.7C273.6,258,277.8,262.4,283.2,262.5z"/>
				<path class="st0" d="M287,231.6L287,231.6L287,231.6L287,231.6L287,231.6l9.5,2.1c1.3,0.3,2.1,1.4,2.1,2.7l-0.1,10.9
					c0,2.5-2.1,4.5-4.6,4.4l0,0c-1.2,0-2.3-0.5-3.2-1.4l-0.1-0.1c-0.8-0.9-2-1.3-3.2-1.4l-0.7,0l0,0l-0.7,0c-1.2,0-2.3,0.4-3.2,1.3
					l-0.1,0.1c-0.9,0.8-2,1.3-3.2,1.3l0,0c-2.5,0-4.5-2.1-4.4-4.6l0.1-10.9c0-1.3,0.9-2.4,2.2-2.6L287,231.6z"/>
				<path class="st9" d="M273.7,246.8l-1.9,0c-0.3,0-0.6-0.3-0.6-0.6l0.1-5.2c0-0.3,0.3-0.6,0.6-0.6l1.9,0L273.7,246.8z"/>
				<g>
					<g>
						<path class="st1" d="M273.8,235.6c10.5-3.6,17.1-3.6,27.6,0.4c0.7,0.3,1.4-0.1,1.7-0.7c0,0,0,0,0,0c0.3-0.7-0.1-1.4-0.8-1.7
							c-11.1-4.2-18.1-4.3-29.4-0.4c-0.7,0.2-1,1-0.8,1.7c0,0,0,0,0,0C272.4,235.5,273.2,235.9,273.8,235.6z"/>
					</g>
				</g>
				<path class="st1" d="M285.4,223.7l3.5,0c0.1,0,0.2-0.1,0.2-0.2l0-1.5c0-0.1-0.1-0.2-0.2-0.2l-3.5,0c-0.1,0-0.2,0.1-0.2,0.2
					l0,1.5C285.2,223.6,285.3,223.7,285.4,223.7z"/>
			</g>
		</g>
		<g>
			<polygon class="st2" points="128.7,251.7 130.3,256.2 135.2,256.4 131.4,259.4 132.7,264.1 128.7,261.4 124.6,264.1 125.9,259.4 
				122.1,256.4 127,256.2 			"/>
			<polygon class="st2" points="144.9,251.7 146.5,256.2 151.4,256.4 147.6,259.4 148.9,264.1 144.9,261.4 140.8,264.1 142.1,259.4 
				138.3,256.4 143.2,256.2 			"/>
			<polygon class="st2" points="161.1,251.7 162.7,256.2 167.6,256.4 163.8,259.4 165.1,264.1 161.1,261.4 157,264.1 158.3,259.4 
				154.5,256.4 159.4,256.2 			"/>
			<polygon class="st0" points="177.2,251.7 178.9,256.2 183.8,256.4 180,259.4 181.3,264.1 177.2,261.4 173.2,264.1 174.5,259.4 
				170.7,256.4 175.6,256.2 			"/>
			<polygon class="st0" points="193.4,251.7 195.1,256.2 200,256.4 196.2,259.4 197.5,264.1 193.4,261.4 189.4,264.1 190.7,259.4 
				186.9,256.4 191.8,256.2 			"/>
		</g>
	</g>
	<g>
		<path class="st3" d="M403.7,385.5H84.4c-0.6,0-1.1-0.5-1.1-1.1v-80.6c0-0.6,0.5-1.1,1.1-1.1h319.3c22.8,0,41.4,18.5,41.4,41.4v0
			C445,367,426.5,385.5,403.7,385.5z"/>
		<g>
			<path class="st8" d="M174.6,359.2h8.4l2.8-23.2l0.6-2.7l-5.8,4.5c-0.3,0.3-0.7,0.4-1,0.5c-0.3,0.1-0.6,0.1-0.9,0.1
				c-0.5,0-0.9-0.1-1.3-0.3c-0.4-0.2-0.6-0.4-0.8-0.7l-2.3-3.7l14.8-11.3h7.3l-4.5,36.8h7.3l-0.8,6.4h-24.4L174.6,359.2z"/>
			<path class="st8" d="M230.6,322.1c2,0,3.7,0.3,5.2,0.8c1.5,0.5,2.8,1.3,3.8,2.2c1,0.9,1.8,2,2.3,3.2c0.5,1.2,0.8,2.5,0.8,3.9
				c0,1.6-0.2,2.9-0.5,4.1c-0.3,1.2-0.8,2.2-1.5,3c-0.6,0.8-1.4,1.5-2.4,2.1c-1,0.6-2.1,1-3.3,1.4c2,0.8,3.6,2,4.6,3.4
				c1,1.4,1.5,3.2,1.5,5.2c0,1.6-0.2,3.1-0.7,4.5c-0.4,1.4-1,2.6-1.8,3.7c-0.8,1.1-1.7,2.1-2.7,2.9c-1.1,0.8-2.2,1.5-3.5,2.1
				c-1.2,0.6-2.6,1-4,1.3c-1.4,0.3-2.8,0.4-4.3,0.4c-2.1,0-3.9-0.2-5.4-0.7s-2.9-1.1-4-2.1c-1.1-0.9-2.1-2.1-2.8-3.6
				c-0.7-1.4-1.3-3.2-1.7-5.2l4.1-1.6c0.4-0.2,0.7-0.3,1.1-0.3c0.3-0.1,0.7-0.1,1-0.1c0.6,0,1.1,0.1,1.6,0.4c0.4,0.2,0.8,0.6,0.9,1
				c0.7,1.7,1.4,3,2.4,3.8c0.9,0.8,2.2,1.2,3.7,1.2c1.1,0,2.2-0.2,3.1-0.6c0.9-0.4,1.6-0.9,2.3-1.6c0.6-0.7,1.1-1.5,1.4-2.4
				c0.3-0.9,0.5-1.9,0.5-2.9c0-0.7-0.1-1.4-0.3-1.9s-0.6-1.1-1.3-1.5c-0.6-0.4-1.5-0.7-2.6-1c-1.1-0.2-2.6-0.3-4.4-0.3l0.8-6.1
				c1.8,0,3.3-0.2,4.5-0.5c1.2-0.3,2.2-0.7,2.9-1.3c0.7-0.6,1.2-1.3,1.5-2.1c0.3-0.8,0.4-1.8,0.4-2.8c0-1.5-0.4-2.6-1.2-3.4
				c-0.8-0.8-1.9-1.2-3.5-1.2c-1.5,0-2.7,0.4-3.8,1.2c-1,0.8-1.8,1.7-2.3,2.9c-0.4,0.8-0.9,1.5-1.4,1.8c-0.5,0.4-1.2,0.6-2,0.6
				c-0.2,0-0.4,0-0.6,0c-0.2,0-0.4,0-0.6-0.1l-4.6-0.8c0.6-2.1,1.4-4,2.5-5.6c1.1-1.6,2.4-2.9,3.8-4c1.5-1.1,3.1-1.9,4.8-2.4
				C226.7,322.3,228.6,322.1,230.6,322.1z"/>
			<path class="st8" d="M269.3,322.1c2,0,3.8,0.4,5.5,1.1c1.6,0.7,3,1.8,4.2,3.3c1.2,1.5,2.1,3.3,2.7,5.5c0.6,2.2,1,4.8,1,7.7
				c0,4.5-0.5,8.4-1.5,11.7c-1,3.3-2.3,6.1-4,8.3c-1.7,2.2-3.7,3.8-6,4.9c-2.3,1.1-4.8,1.6-7.4,1.6c-2,0-3.8-0.4-5.5-1.1
				c-1.6-0.7-3-1.8-4.2-3.3c-1.2-1.5-2.1-3.3-2.7-5.5c-0.6-2.2-1-4.8-1-7.7c0-4.5,0.5-8.4,1.5-11.7c1-3.3,2.3-6.1,4-8.3
				c1.7-2.2,3.7-3.8,6-4.9C264.2,322.6,266.6,322.1,269.3,322.1z M265,359c1.2,0,2.3-0.4,3.3-1.2c1-0.8,1.9-2,2.7-3.6
				c0.7-1.6,1.3-3.6,1.7-6c0.4-2.4,0.6-5.2,0.6-8.5c0-2.1-0.2-3.8-0.5-5.2c-0.3-1.4-0.7-2.5-1.2-3.3c-0.5-0.8-1.1-1.4-1.7-1.7
				c-0.6-0.3-1.3-0.5-1.9-0.5c-1.2,0-2.3,0.4-3.4,1.2c-1,0.8-1.9,2-2.6,3.6c-0.7,1.6-1.3,3.6-1.7,6c-0.4,2.4-0.6,5.2-0.6,8.4
				c0,2.1,0.2,3.8,0.5,5.2c0.3,1.4,0.7,2.5,1.2,3.3c0.5,0.8,1.1,1.4,1.7,1.7C263.7,358.9,264.4,359,265,359z"/>
			<path class="st8" d="M291.8,337.6h3.4c0.8-2.4,1.8-4.5,3-6.4c1.2-1.9,2.7-3.5,4.3-4.9c1.6-1.3,3.4-2.4,5.4-3.1
				c1.9-0.7,4-1.1,6.1-1.1c1.4,0,2.7,0.1,3.8,0.4c1.2,0.3,2.2,0.7,3.2,1.2c0.9,0.5,1.8,1.2,2.5,1.9c0.7,0.7,1.4,1.6,1.9,2.5
				l-3.6,3.3c-0.3,0.3-0.6,0.5-0.8,0.7c-0.3,0.2-0.7,0.3-1.1,0.3c-0.3,0-0.6-0.1-0.8-0.2c-0.2-0.1-0.5-0.3-0.7-0.5
				c-0.2-0.2-0.5-0.4-0.7-0.7c-0.3-0.3-0.6-0.5-0.9-0.7c-0.4-0.2-0.8-0.4-1.4-0.5c-0.5-0.1-1.2-0.2-2-0.2c-2,0-3.8,0.7-5.4,2.1
				c-1.6,1.4-2.8,3.4-3.7,6h14.1l-0.3,2.7c0,0.2-0.1,0.5-0.3,0.7c-0.1,0.2-0.3,0.5-0.6,0.7c-0.2,0.2-0.5,0.3-0.8,0.5
				c-0.3,0.1-0.7,0.2-1,0.2h-12.2c-0.1,0.5-0.1,0.9-0.2,1.4c-0.1,0.5-0.1,1-0.1,1.5h11.8l-0.4,2.6c0,0.3-0.1,0.5-0.3,0.8
				c-0.1,0.3-0.3,0.5-0.6,0.7c-0.2,0.2-0.5,0.4-0.8,0.5c-0.3,0.1-0.6,0.2-1,0.2h-8.7c0.2,2.9,0.9,5.1,2.1,6.6
				c1.2,1.5,2.7,2.2,4.5,2.2c1.3,0,2.3-0.2,3.1-0.5c0.8-0.3,1.4-0.7,2-1.2c0.5-0.4,1-0.8,1.3-1.2c0.4-0.3,0.8-0.5,1.3-0.5
				c0.3,0,0.5,0,0.7,0.1c0.2,0.1,0.3,0.2,0.5,0.4l3.4,3.5c-1.6,2.2-3.6,3.9-6,5c-2.3,1.1-4.9,1.7-7.7,1.7c-2.3,0-4.3-0.4-6.1-1.2
				c-1.7-0.8-3.2-1.9-4.4-3.3c-1.2-1.4-2.1-3.1-2.8-5.1c-0.7-2-1-4.1-1.2-6.5h-3.5l0.6-4.7h3c0-0.5,0.1-1,0.1-1.5
				c0-0.5,0.1-0.9,0.2-1.4h-2.9L291.8,337.6z"/>
		</g>
		<circle class="st10" cx="90.9" cy="344.1" r="57.1"/>
		<g>
			<path class="st3" d="M69.8,333.1L69.8,333.1c13.4-5.2,28.1-5.1,41.5,0.3l0.7,0.3l0.1-7.5c0.1-7-5.1-12.7-11.5-12.8l-18.8-0.3
				c-6.5-0.1-11.8,5.5-11.9,12.5L69.8,333.1z"/>
			<path class="st4" d="M84.6,376.2l11.7,0.2c8.4,0.1,15.4-6.6,15.5-15.1l0.4-27.9l-8.2-3.3c-8.3-3.3-17.5-3.4-25.8-0.3l-8.2,3
				l-0.4,27.9C69.4,369.2,76.1,376.1,84.6,376.2z"/>
			<path class="st5" d="M90.6,327.6L90.6,327.6L90.6,327.6L90.6,327.6L90.6,327.6l14.9,3.2c2,0.4,3.4,2.2,3.4,4.2l-0.2,17.1
				c-0.1,3.9-3.3,7.1-7.2,7l0,0c-1.9,0-3.7-0.8-5-2.1l-0.1-0.1c-1.3-1.4-3.1-2.1-5-2.1l-1.1,0l0,0l-1.1,0c-1.9,0-3.7,0.7-5.1,2
				l-0.1,0.1c-1.4,1.3-3.2,2-5.1,2h0c-3.9-0.1-7.1-3.3-7-7.2l0.2-17.1c0-2,1.5-3.8,3.5-4.1L90.6,327.6z"/>
			<path class="st6" d="M69.6,351.5l-3,0c-0.5,0-0.9-0.4-0.9-0.9l0.1-8.2c0-0.5,0.4-0.9,0.9-0.9l3,0L69.6,351.5z"/>
			<path class="st6" d="M112,342.1l3,0c0.5,0,0.9,0.4,0.9,0.9l-0.1,8.2c0,0.5-0.4,0.9-0.9,0.9l-3,0L112,342.1z"/>
			<g>
				<g>
					<path class="st7" d="M69.8,333.9c16.6-5.7,27-5.6,43.5,0.6c1.1,0.4,2.2-0.1,2.7-1.2c0,0,0,0,0,0c0.4-1.1-0.1-2.3-1.2-2.7
						c-17.5-6.6-28.6-6.8-46.3-0.6c-1.1,0.4-1.7,1.6-1.3,2.7c0,0,0,0,0,0C67.6,333.7,68.8,334.2,69.8,333.9z"/>
				</g>
			</g>
			<path class="st7" d="M88,315l5.5,0.1c0.2,0,0.4-0.2,0.4-0.4l0-2.4c0-0.2-0.2-0.4-0.4-0.4l-5.5-0.1c-0.2,0-0.4,0.2-0.4,0.4l0,2.4
				C87.7,314.8,87.8,315,88,315z"/>
		</g>
		<g>
			<polygon class="st8" points="420.6,330.7 388.7,362.6 388.7,362.6 385.5,359.5 373,346.8 379.1,341.1 389.7,351.7 415.4,325.6 
							"/>
		</g>
	</g>
	<g>
		<path class="st5" d="M240.8,347.5l56.3,23.9c0,0,0.1,0,0.1,0l-0.9,2.2l-19.2-8.1c-4.9-2.1-10.6,0.2-12.7,5.2l-0.3,0.7
			c-2.1,4.9,0.2,10.6,5.2,12.7l19.2,8.1l-1,2.3l-14.8-6.3c-4.5-1.9-9.7,0.2-11.6,4.7l-0.3,0.7c-1.9,4.5,0.2,9.7,4.7,11.6l14.8,6.3
			l-1.5,3.4l-7.3-3.1c-3.7-1.6-8,0.2-9.5,3.9l-0.9,2.1c-1.6,3.7,0.2,8,3.9,9.5l52.7,22.3c6.8,2.9,14.1,4.7,21.5,5.2l35.3,2.7
			l24.4-57.5l-2.6-2.7c-6.9-7.2-15.2-12.9-24.3-16.8l-1-0.4c-0.1,0-0.2-0.1-0.3-0.2l-88.3-37.4c0.1,0,0.1,0.1,0.1,0.1l-33.6-14.2
			c-5.2-2.2-11.4,0.3-13.6,5.5C233.1,339.2,235.5,345.3,240.8,347.5z"/>
		
			<rect x="348.7" y="415.8" transform="matrix(0.3901 -0.9208 0.9208 0.3901 -158.5689 620.7859)" class="st9" width="81.3" height="28.6"/>
		<path class="st0" d="M453.9,413.3l-35.5-15.1l-31.7,74.8l35.5,15.1c2.1,0.9,4.5-0.1,5.4-2.2l28.5-67.3
			C457,416.6,456,414.2,453.9,413.3z"/>
		<path class="st5" d="M325.8,342.1l20,8.5c6.8,2.9,12.5,7.8,16.3,14.1l9.7,15.9l-67.1-28.4l0.8-1.8
			C308.9,342.4,318,338.7,325.8,342.1z"/>
	</g>
</g>
</svg>
