<svg xmlns="http://www.w3.org/2000/svg" xmlns:xlink="http://www.w3.org/1999/xlink" version="1.1" style="enable-background:new 0 0 500.7 500.7;" xml:space="preserve" width="500.7" height="500.7"><rect id="backgroundrect" width="100%" height="100%" x="0" y="0" fill="none" stroke="none"/>
<style type="text/css">
	.st0{fill:#5B6366;}
	.st1{fill:#E0EDF5;}
	.st2{fill:#C1CFDB;}
	.st3{opacity:0.5;fill:#C1CFDB;}
	.st4{fill:#FAFDFF;}
	.st5{fill:#FFBB33;}
	.st6{fill:#00AEEF;}
	.st7{fill:#FF4633;}
	.st8{opacity:0.5;fill:#FAFDFF;}
	.st9{fill:#0190F6;}
</style>





























<g class="currentLayer" style=""><title>Layer 1</title><path class="st0" d="M417,118.3H83.7c-8,0-14.4,6.5-14.4,14.4V356h362.1V132.8C431.4,124.8,425,118.3,417,118.3z" id="svg_1"/><path class="st1" d="M472.8,356h-448c-2.6,0-4.7,2.1-4.7,4.7v6.6h457.4v-6.6C477.6,358.2,475.5,356,472.8,356z" id="svg_2"/><path class="st2" d="M477.6,367H20.2l3.1,1.1c11.2,4.1,23,6.2,35,6.2h381.3c11.9,0,23.8-2.1,35-6.2L477.6,367z" id="svg_3"/><path class="st3" d="M286.4,360.1h-72c-2.3,0-4.1-1.8-4.1-4.1l0,0h80.2l0,0C290.5,358.3,288.6,360.1,286.4,360.1z" id="svg_4"/><circle class="st2" cx="249.6999969482422" cy="124.80000305175781" r="1.7000000476837158" id="svg_5"/><rect x="84.4000015258789" y="139.5" class="st1" width="338.5" height="215" id="svg_6"/><path class="st4" d="M412.6,342.4H86.7c-0.2,0-0.3-0.1-0.3-0.3V174.5c0-0.2,0.1-0.3,0.3-0.3h325.9c0.2,0,0.3,0.1,0.3,0.3v167.6  C412.9,342.3,412.8,342.4,412.6,342.4z" id="svg_7"/><circle class="st5" cx="382.29998779296875" cy="141" r="3.799999952316284" id="svg_8"/><circle class="st6" cx="395.70001220703125" cy="141" r="3.799999952316284" id="svg_9"/><circle class="st7" cx="409.1000061035156" cy="141" r="3.799999952316284" id="svg_10"/><rect x="98.9000015258789" y="188" class="st1" width="80.80000305175781" height="141.6999969482422" id="svg_11"/><rect x="191.39999389648438" y="188" class="st1" width="208.10000610351562" height="64.4000015258789" id="svg_12"/><rect x="191.39999389648438" y="188" class="st8" width="57" height="64.4000015258789" id="svg_13"/><rect x="98.9000015258789" y="217.1999969482422" class="st8" width="80.80000305175781" height="29.299999237060547" id="svg_14"/><path class="st8" d="M141.8,260.6h-35c-1.3,0-2.3-1-2.3-2.3l0,0c0-1.3,1-2.3,2.3-2.3h35c1.3,0,2.3,1,2.3,2.3l0,0  C144.1,259.6,143.1,260.6,141.8,260.6z" id="svg_28"/><path class="st8" d="M171.3,272.2h-64.5c-1.3,0-2.3-1-2.3-2.3l0,0c0-1.3,1-2.3,2.3-2.3h64.5c1.3,0,2.3,1,2.3,2.3l0,0  C173.6,271.1,172.6,272.2,171.3,272.2z" id="svg_29"/><path class="st8" d="M141.8,296.5h-35c-1.3,0-2.3-1-2.3-2.3l0,0c0-1.3,1-2.3,2.3-2.3h35c1.3,0,2.3,1,2.3,2.3l0,0  C144.1,295.4,143.1,296.5,141.8,296.5z" id="svg_30"/><path class="st8" d="M171.3,308h-64.5c-1.3,0-2.3-1-2.3-2.3l0,0c0-1.3,1-2.3,2.3-2.3h64.5c1.3,0,2.3,1,2.3,2.3l0,0  C173.6,307,172.6,308,171.3,308z" id="svg_31"/><path class="st8" d="M141.8,200.1h-35c-1.3,0-2.3-1-2.3-2.3v0c0-1.3,1-2.3,2.3-2.3h35c1.3,0,2.3,1,2.3,2.3v0  C144.1,199,143.1,200.1,141.8,200.1z" id="svg_32"/><path class="st8" d="M171.3,211h-64.5c-1.3,0-2.3-1-2.3-2.3l0,0c0-1.3,1-2.3,2.3-2.3h64.5c1.3,0,2.3,1,2.3,2.3l0,0  C173.6,210,172.6,211,171.3,211z" id="svg_33"/><path class="st8" d="M298.2,203.2h-35c-1.3,0-2.3-1-2.3-2.3l0,0c0-1.3,1-2.3,2.3-2.3h35c1.3,0,2.3,1,2.3,2.3l0,0  C300.6,202.2,299.5,203.2,298.2,203.2z" id="svg_34"/><path class="st8" d="M388.6,241.1h-31.9c-2.1,0-3.9-1.7-3.9-3.9v0c0-2.1,1.7-3.9,3.9-3.9h31.9c2.1,0,3.9,1.7,3.9,3.9v0  C392.5,239.3,390.8,241.1,388.6,241.1z" id="svg_35"/><path class="st8" d="M327.7,214.2h-64.5c-1.3,0-2.3-1-2.3-2.3l0,0c0-1.3,1-2.3,2.3-2.3h64.5c1.3,0,2.3,1,2.3,2.3l0,0  C330,213.1,329,214.2,327.7,214.2z" id="svg_36"/><rect x="191.39999389648438" y="262.6000061035156" class="st1" width="208.10000610351562" height="67.80000305175781" id="svg_37"/><rect x="191.39999389648438" y="262.6000061035156" class="st8" width="57" height="67.80000305175781" id="svg_38"/><path class="st8" d="M298.2,280.4h-35c-1.3,0-2.3-1-2.3-2.3v0c0-1.3,1-2.3,2.3-2.3h35c1.3,0,2.3,1,2.3,2.3v0  C300.6,279.3,299.5,280.4,298.2,280.4z" id="svg_39"/><path class="st8" d="M388.6,319.3h-31.9c-2.1,0-3.9-1.7-3.9-3.9v0c0-2.1,1.7-3.9,3.9-3.9h31.9c2.1,0,3.9,1.7,3.9,3.9v0  C392.5,317.6,390.8,319.3,388.6,319.3z" id="svg_40"/><path class="st8" d="M327.7,291.4h-64.5c-1.3,0-2.3-1-2.3-2.3v0c0-1.3,1-2.3,2.3-2.3h64.5c1.3,0,2.3,1,2.3,2.3v0  C330,290.3,329,291.4,327.7,291.4z" id="svg_41"/></g></svg>